<?xml version="1.0" encoding="utf-8"?>
<!-- Generator: Adobe Illustrator 19.2.1, SVG Export Plug-In . SVG Version: 6.00 Build 0)  -->
<svg version="1.1" id="layer" xmlns="http://www.w3.org/2000/svg" xmlns:xlink="http://www.w3.org/1999/xlink" x="0px" y="0px"
	 viewBox="0 0 652 652" style="enable-background:new 0 0 652 652;" xml:space="preserve">
<style type="text/css">
	.st0{fill:#7850FA;}
</style>
<path class="st0" d="M100.8,388.3c22.4,0,41-15.9,44.8-36.9c0.2-1-0.6-2-1.7-2H57.7c-1.1,0-1.9,0.9-1.7,2
	C59.8,372.4,78.4,388.3,100.8,388.3z M147.8,286.8c-1.4-11.5-10.7-21-22.3-22.7c-5.4-0.8-10.6,0-15.1,2.1c-6.2,2.8-13.2,2.8-19.3,0
	c-4.5-2-9.6-2.8-15-2.1c-11.1,1.6-19.9,9.7-22,20.6c-2.2,11.4,3,21.7,11.8,27.2c0.9,0.6,1.1,1.7,0.4,2.5c-6,6.9-9.9,15.7-10.7,25.4
	c-0.1,1,0.7,1.8,1.7,1.8h87.2c1,0,1.8-0.8,1.7-1.8c-0.8-9.6-4.7-18.4-10.7-25.4c-0.7-0.8-0.5-1.9,0.4-2.5
	C143.9,306.8,149.1,297.3,147.8,286.8z M92.2,318.2c-2.9,0-5.3-2.3-5.3-5.2c0-2.9,2.4-5.2,5.3-5.2c2.9,0,5.3,2.3,5.3,5.2
	C97.4,315.9,95.1,318.2,92.2,318.2z M109.4,318.2c-2.9,0-5.3-2.3-5.3-5.2c0-2.9,2.4-5.2,5.3-5.2c2.9,0,5.3,2.3,5.3,5.2
	C114.7,315.9,112.3,318.2,109.4,318.2z M123.3,293.3H78.3c-2.4,0-4.4-2-4.4-4.3c0-2.4,2-4.3,4.4-4.3h45.1c2.4,0,4.4,2,4.4,4.3
	S125.8,293.3,123.3,293.3z M26,314.1v3.7c0,9.5,6,17.6,14.4,21c1.1,0.4,2.3-0.3,2.3-1.5v-42.6c0-1.2-1.2-2-2.3-1.5
	C32,296.5,26,304.6,26,314.1z M158.8,337.2c0,1.2,1.2,2,2.3,1.5c8.4-3.4,14.4-11.5,14.4-20.9v-3.7c0-9.5-6-17.6-14.4-21
	c-1.1-0.4-2.3,0.3-2.3,1.5V337.2z M278.7,305.6c-0.3-11.9-10.4-21.4-22.5-21.4h-28c-0.6,0-1.1,0.5-1.1,1.1v72.1
	c0,0.6,0.5,1.1,1.1,1.1h12.2c0.6,0,1.1-0.5,1.1-1.1v-27.9c0-0.6,0.5-1.1,1.1-1.1l7.4,0c0.7,0,1.3,0.4,1.6,1l11.5,27.9
	c0.3,0.6,0.9,1,1.6,1h13.7c0.6,0,1-0.6,0.8-1.2l-13.2-30.4c-0.2-0.4,0-0.8,0.3-1c0.3-0.2,0.7-0.5,1.4-1
	C275.6,319.6,278.9,313.8,278.7,305.6z M256.2,314.2h-13.6c-0.6,0-1.1-0.5-1.1-1.1v-13.7c0-0.6,0.5-1.1,1.1-1.1H256
	c4.3,0,8,3.2,8.3,7.4C264.6,310.3,260.9,314.2,256.2,314.2z M305.1,304.4c-12.2,0-20.7,7.5-22.2,19.6c-0.5,4.3-0.5,11.7,0,16
	c1.5,12.1,10.1,19.6,22.3,19.6c12.2,0,20.6-7.5,22.2-19.6c0.5-4.3,0.5-11.7,0-16C325.9,311.9,317.4,304.4,305.1,304.4z M314.1,340.1
	c-0.7,4.2-3.7,6.4-8.9,6.4c-5.3,0-8.2-2.1-8.8-6.4c-0.7-4.3-0.7-11.9,0-16.2c0.7-4.5,3.4-6.4,8.8-6.4c5.3,0,8.3,2.1,8.9,6.4
	C314.7,328.3,314.7,335.8,314.1,340.1z M359.7,304.4c-4.6,0-7,1.1-9.1,3c-0.4,0.4-1.1,0.1-1.1-0.5v-21.7c0-0.6-0.5-1.1-1.1-1.1
	h-11.1c-0.6,0-1.1,0.5-1.1,1.1v72.1c0,0.6,0.5,1.1,1.1,1.1h7.3c0.5,0,1-0.2,1.3-0.7l2.7-3.5c0.3-0.3,0.8-0.3,1.1,0
	c2,2.7,4.7,5.3,10,5.3c10.9,0,19.4-8.2,20.3-19.6c0.3-4.3,0.3-11.8,0-16C379.2,312.7,370.6,304.4,359.7,304.4z M366.7,340.1
	c-0.3,4.1-3.6,6.8-8.6,6.8c-5.2,0-8.3-2.5-8.7-6.8c-0.3-4.3-0.3-11.9,0-16.2c0.3-3.1,2-6.8,8.7-6.8c5,0,8.3,2.7,8.6,6.8
	C367,328.3,367,335.8,366.7,340.1z M605.5,359.6c-4.6,0-7-1.1-9.1-3c-0.4-0.4-1.1-0.1-1.1,0.5v21.1c0,0.6-0.5,1.1-1.1,1.1H583
	c-0.6,0-1.1-0.5-1.1-1.1v-71.5c0-0.6,0.5-1.1,1.1-1.1h7.3c0.5,0,1,0.2,1.3,0.7l2.7,3.5c0.3,0.3,0.8,0.3,1.1,0c2-2.7,4.7-5.3,10-5.3
	c10.9,0,19.4,8.2,20.3,19.6c0.3,4.3,0.3,11.8,0,16C624.9,351.4,616.3,359.6,605.5,359.6z M612.4,324c-0.3-4.1-3.6-6.8-8.6-6.8
	c-5.2,0-8.3,2.5-8.7,6.8c-0.3,4.3-0.3,11.9,0,16.2c0.3,3.1,2,6.8,8.7,6.8c5,0,8.3-2.7,8.6-6.8C612.7,335.8,612.7,328.3,612.4,324z
	 M408.9,304.4c-12.2,0-20.7,7.5-22.2,19.6c-0.5,4.3-0.5,11.7,0,16c1.5,12.1,10.1,19.6,22.3,19.6c12.2,0,20.6-7.5,22.2-19.6
	c0.5-4.3,0.5-11.7,0-16C429.7,311.9,421.1,304.4,408.9,304.4z M417.8,340.1c-0.7,4.2-3.7,6.4-8.9,6.4c-5.3,0-8.2-2.1-8.8-6.4
	c-0.7-4.3-0.7-11.9,0-16.2c0.7-4.5,3.4-6.4,8.8-6.4c5.3,0,8.3,2.1,8.9,6.4C418.5,328.3,418.5,335.8,417.8,340.1z M469.3,338.7
	c-0.8,5.5-3.5,7.9-9,7.9c-5.4,0-8.4-2.1-8.9-6.4c-0.6-4.3-0.6-11.9,0-16.2c0.6-4.4,3.3-6.4,8.8-6.4c5.7,0,8.8,2.7,9.1,7.9
	c0,0.1,0,0.2,0,0.3c0.1,0.6,0.5,1,1.1,1H481c0.6,0,1.1-0.5,1.1-1.1v-0.6c0-12.1-9-20.6-21.8-20.6c-12.2,0-20.8,7.5-22.3,19.6
	c-0.5,4.3-0.5,11.7,0,16c1.5,12.1,10.1,19.6,22.3,19.6c10.9,0,21.8-7.1,21.8-20.6v-0.6c0-0.6-0.5-1.1-1.1-1.1h-10.5
	c-0.6,0-1,0.4-1.1,0.9C469.4,338.3,469.4,338.5,469.3,338.7z M510.8,304.4c-12.2,0-20.7,7.5-22.2,19.6c-0.5,4.3-0.5,11.7,0,16
	c1.5,12.1,10.1,19.6,22.3,19.6c12.2,0,20.6-7.5,22.2-19.6c0.5-4.3,0.5-11.7,0-16C531.5,311.9,523,304.4,510.8,304.4z M519.7,340.1
	c-0.7,4.2-3.7,6.4-8.9,6.4c-5.3,0-8.2-2.1-8.8-6.4c-0.7-4.3-0.7-11.9,0-16.2c0.7-4.5,3.4-6.4,8.8-6.4c5.3,0,8.3,2.1,8.9,6.4
	C520.3,328.3,520.3,335.8,519.7,340.1z M573.9,305.6h-4.4c-6.8,0-9.7,2.4-11.9,4.1c-0.9,0.7-2.6,2.4-3.7,3.4c-0.4,0.3-1,0.2-1.1-0.3
	l-2.1-6.1c-0.2-0.7-0.9-1.1-1.6-1.1h-6.5c-0.6,0-1.1,0.5-1.1,1.1v50.7c0,0.6,0.5,1.1,1.1,1.1h11.1c0.6,0,1.1-0.5,1.1-1.1v-26.3
	c0-8.4,5.5-13.4,14.6-13.4h4.5c0.6,0,1.1-0.5,1.1-1.1v-9.8C575,306.1,574.5,305.6,573.9,305.6z"/>
</svg>
