<?xml version="1.0" encoding="UTF-8" standalone="no"?>
<!-- Created with Inkscape (http://www.inkscape.org/) -->

<svg
   width="433.80133mm"
   height="76.641144mm"
   viewBox="0 0 433.80133 76.641144"
   version="1.1"
   id="svg1"
   xml:space="preserve"
   xmlns="http://www.w3.org/2000/svg"
   xmlns:svg="http://www.w3.org/2000/svg"><defs
     id="defs1"><clipPath
       id="clipPath18"
       clipPathUnits="userSpaceOnUse"><path
         id="path16"
         d="M 0,841.89 H 595.276 V 0 H 0 Z" /></clipPath></defs><g
     id="layer1"
     transform="translate(-62.729112,-48.134566)"><g
       id="g12"
       transform="matrix(0.35277777,0,0,-0.35277777,26.001213,306.1945)"><g
         clip-path="url(#clipPath18)"
         id="g14"
         style="fill:#612bd2;fill-opacity:1"
         transform="matrix(1.2274774,0,0,1.2437722,-61.344938,-151.84167)"><g
           id="g16"
           transform="matrix(3.4516874,0,0,3.533284,-390.42992,-1088.7193)"
           style="fill:#612bd2;fill-opacity:1"><g
             transform="translate(172.5866,487.9591)"
             id="g9"
             style="fill:#612bd2;fill-opacity:1"><path
               id="path9"
               style="fill:#612bd2;fill-opacity:1;fill-rule:nonzero;stroke:none"
               d="m 0,0 c 0,-4.022 1.868,-7.283 4.173,-7.283 2.305,0 4.173,3.261 4.173,7.283 0,4.022 -1.868,7.283 -4.173,7.283 C 1.868,7.283 0,4.022 0,0" /></g><g
             transform="translate(209.9439,488.7099)"
             id="g10"
             style="fill:#612bd2;fill-opacity:1"><path
               id="path10"
               style="fill:#612bd2;fill-opacity:1;fill-rule:nonzero;stroke:none"
               d="m 0,0 c 0,4.022 -1.868,7.283 -4.173,7.283 -2.305,0 -4.173,-3.261 -4.173,-7.283 0,-4.022 1.868,-7.283 4.173,-7.283 C -1.868,-7.283 0,-4.022 0,0" /></g><g
             id="g15"
             style="fill:#612bd2;fill-opacity:1"><g
               transform="translate(196.9735,486.8928)"
               id="g11"
               style="fill:#612bd2;fill-opacity:1"><path
                 id="path11"
                 style="fill:#612bd2;fill-opacity:1;fill-rule:nonzero;stroke:none"
                 d="m 0,0 c -4.728,-3.451 -9.456,-6.902 -14.184,-10.353 -0.447,-0.299 -5.943,-3.867 -11.331,-1.467 -6.536,2.913 -6.376,11.699 -6.358,12.676 0.007,0.384 0.334,8.927 7.092,12.757 2.866,1.625 6.531,1.278 10.739,1.078 0.23,-0.011 0.421,-0.022 0.551,-0.031 0.275,0.012 0.503,0.148 0.626,0.386 0.502,0.968 -2.045,3.479 -4.399,4.925 -1.816,1.115 -3.5,1.585 -4.419,1.794 -2.439,0.555 -8.892,1.422 -14.836,-2.609 -6.32,-4.285 -7.668,-11.048 -7.907,-12.39 -0.337,-1.924 -1.705,-10.923 4.075,-18.586 2.913,-3.861 8.231,-8.164 13.614,-8.233 3.102,-0.039 5.869,1.06 5.869,1.06 1.671,0.663 2.922,1.51 3.75,2.162 L 0,-3.75 Z" /></g><g
               transform="translate(225.8589,500.7527)"
               id="g13"
               style="fill:#612bd2;fill-opacity:1"><path
                 id="path12"
                 style="fill:#612bd2;fill-opacity:1;fill-rule:nonzero;stroke:none"
                 d="m 0,0 c -2.913,3.861 -8.231,8.165 -13.613,8.233 -3.102,0.04 -5.869,-1.06 -5.869,-1.06 -1.671,-0.663 -2.923,-1.51 -3.75,-2.161 L -40.351,-8.07 v -3.75 c 4.728,3.451 9.456,6.902 14.184,10.353 0.447,0.3 5.944,3.867 11.331,1.467 6.536,-2.912 6.376,-11.699 6.358,-12.676 -0.007,-0.384 -0.334,-8.927 -7.092,-12.757 -2.865,-1.625 -6.53,-1.278 -10.739,-1.078 -0.009,10e-4 -0.111,0.009 -0.252,0.013 -0.16,0.005 -0.297,0.004 -0.402,0.001 -2.232,-0.144 -4.018,-3.338 -4.018,-7.269 0,-4.022 1.869,-7.282 4.173,-7.282 2.305,0 4.173,3.26 4.173,7.282 0,0.619 -0.049,1.217 -0.132,1.791 1.692,-0.978 3.235,-1.413 4.1,-1.61 2.439,-0.555 8.891,-1.422 14.836,2.609 6.319,4.285 7.667,11.049 7.907,12.39 C 4.413,-16.662 5.781,-7.663 0,0" /></g></g></g><path
           id="path17"
           style="fill:#612bd2;fill-opacity:1;stroke-width:1.6698"
           d="m 163.34375,140.35352 c -21.20977,-0.25739 -42.95274,7.80532 -59.11524,23.98046 -29.307165,29.33011 -35.580428,78.54856 -15.392573,120.76563 9.551195,19.97356 36.457313,44.16048 56.435543,50.73047 2.29597,0.75505 10.56484,1.17108 18.37305,0.92578 20.5548,-0.64572 27.74498,-4.66474 76.69727,-42.87109 l 41.71875,-32.56055 0.0684,-7.09766 c 0.037,-3.90315 -0.35313,-7.0957 -0.86718,-7.0957 -0.51405,0 -15.73113,11.04068 -33.81446,24.53516 -37.7987,28.20684 -45.63084,32.15615 -63.76953,32.16015 -15.41041,0.004 -23.2737,-3.25599 -32.7539,-13.58203 -9.12744,-9.94182 -14.15412,-23.62586 -15.22657,-41.44336 -1.46749,-24.38061 5.69016,-44.6473 21.32618,-60.38281 12.11002,-12.18707 20.15379,-14.75977 46.16015,-14.75977 22.39838,0 23.23603,-1.0051 10.86328,-13.04882 -13.68833,-13.32433 -31.98862,-20.02875 -50.70312,-20.25586 z m 186.43945,2.41406 c -15.33574,0 -17.65106,0.43365 -26.74219,5.01367 -5.47411,2.7578 -28.55112,19.62122 -51.28125,37.47461 l -41.32812,32.46094 v 7.29101 c 0,5.38802 0.54537,6.96361 2.08789,6.03711 1.14799,-0.68952 15.30868,-11.18137 31.46875,-23.3164 32.42541,-24.34913 41.48329,-29.63188 55.00977,-32.08204 30.41479,-5.50926 51.75112,13.01175 57.07617,49.54688 1.65674,11.36687 1.52466,15.25852 -0.89258,26.40039 -3.63088,16.73592 -9.44252,28.52266 -18.82617,38.17773 -12.11885,12.46938 -19.35565,14.91132 -45.26367,15.27539 -12.16686,0.17097 -23.5672,1.13209 -25.45899,2.14454 -1.88422,1.00841 -5.11299,5.00059 -7.17578,8.87304 -3.08814,5.79732 -3.75195,9.69625 -3.75195,22.07031 0,17.02047 3.87506,27.21975 11.94726,31.44922 5.833,3.05621 9.52734,1.90747 15.41211,-4.79492 5.05387,-5.75604 8.51758,-17.56909 8.51758,-29.04687 v -6.4043 l 9.97656,4.0293 c 20.75402,8.38292 47.68743,6.54263 68.7793,-4.69922 19.33109,-10.30336 36.19308,-32.55412 42.29297,-55.81055 3.41511,-13.02035 3.43048,-40.46285 0.0312,-55.14844 -1.46269,-6.31924 -5.42333,-17.1238 -8.80078,-24.01171 -8.33458,-16.99734 -28.21177,-37.12909 -44.62696,-45.19727 -10.93909,-5.37664 -12.70363,-5.73242 -28.45117,-5.73242 z"
           transform="matrix(0.75000002,0,0,-0.75000002,77.674835,814.88324)" /><path
           style="fill:#612bd2;fill-opacity:1;stroke-width:1.6698"
           d="m 315.17595,265.52917 c -8.8169,-6.93538 -12.9519,-26.69888 -8.83709,-42.23742 3.20785,-12.11362 6.38992,-17.00715 12.78033,-19.65414 4.40573,-1.82491 5.59444,-1.66783 9.51994,1.25803 7.8431,5.84582 10.89224,13.15567 11.67019,27.97752 0.59946,11.42129 0.11361,14.97463 -3.05442,22.33892 -5.78647,13.45101 -13.50788,17.05909 -22.07895,10.31709 z"
           id="path18"
           transform="matrix(0.75000002,0,0,-0.75000002,77.674835,814.88324)" /><path
           style="fill:#612bd2;fill-opacity:1;stroke-width:1.6698"
           d="m 180.70897,268.39727 c -9.11087,-9.69808 -12.17915,-33.06406 -6.24695,-47.57268 3.03795,-7.43003 11.00362,-15.43942 15.35517,-15.43942 4.2044,0 13.4282,10.55743 15.38656,17.61124 2.41093,8.68395 2.3481,24.59251 -0.12979,32.863 -4.32381,14.43157 -16.63458,20.76651 -24.36499,12.53786 z"
           id="path19"
           transform="matrix(0.75000002,0,0,-0.75000002,77.674835,814.88324)" /></g><text
         xml:space="preserve"
         style="font-style:normal;font-variant:normal;font-weight:500;font-stretch:normal;font-size:160px;font-family:'Google Sans Display';-inkscape-font-specification:'Google Sans Display, Medium';font-variant-ligatures:normal;font-variant-caps:normal;font-variant-numeric:normal;font-variant-east-asian:normal;text-align:start;writing-mode:lr-tb;direction:ltr;text-anchor:start;fill:#612bd2;fill-opacity:1;stroke-width:0.75"
         x="460.96289"
         y="-567.58838"
         id="text19"
         transform="scale(1,-1)"><tspan
           id="tspan19"
           style="font-style:normal;font-variant:normal;font-weight:500;font-stretch:normal;font-size:180px;font-family:'Google Sans Display';-inkscape-font-specification:'Google Sans Display, Medium';font-variant-ligatures:normal;font-variant-caps:normal;font-variant-numeric:normal;font-variant-east-asian:normal;stroke-width:0.75"
           x="460.96289"
           y="-567.58838">Dynamoos</tspan></text></g></g></svg>
