<svg width="81" height="80" viewBox="0 0 81 80" fill="none" xmlns="http://www.w3.org/2000/svg">
<g clip-path="url(#clip0_60783_134106)">
<g clip-path="url(#clip1_60783_134106)">
<path d="M70.3389 52.7871C65.0056 52.7871 60.6771 48.3668 60.6771 42.9203C60.6771 37.4739 65.0056 33.0536 70.3389 33.0536C75.6722 33.0536 80.0007 37.4739 80.0007 42.9203C80.0007 48.3668 75.6722 52.7871 70.3389 52.7871ZM70.3389 48.7088C73.4693 48.7088 76.0072 46.1172 76.0072 42.9203C76.0072 39.7235 73.4693 37.1318 70.3389 37.1318C67.2085 37.1318 64.6706 39.7235 64.6706 42.9203C64.6706 46.1172 67.2085 48.7088 70.3389 48.7088ZM50.1135 52.7871C44.7801 52.7871 40.4516 48.3668 40.4516 42.9203C40.4516 37.4739 44.7801 33.0536 50.1135 33.0536C55.4468 33.0536 59.7753 37.4739 59.7753 42.9203C59.7753 48.3668 55.4468 52.7871 50.1135 52.7871ZM50.1135 48.7088C53.2439 48.7088 55.7817 46.1172 55.7817 42.9203C55.7817 39.7235 53.2439 37.1318 50.1135 37.1318C46.983 37.1318 44.4452 39.7235 44.4452 42.9203C44.4452 46.1172 46.983 48.7088 50.1135 48.7088ZM39.5499 42.7888C39.5499 48.301 35.2214 52.7871 29.888 52.7871C24.5547 52.7871 20.2262 48.3141 20.2262 42.8019C20.2262 37.2897 24.1553 33.0536 29.888 33.0536C32.0007 33.0536 33.9589 33.514 35.5563 34.7112V28.9885C35.5563 27.8965 36.4967 27.002 37.5531 27.002C38.6094 27.002 39.5499 27.8965 39.5499 28.9885V42.7888ZM29.888 48.7088C33.0185 48.7088 35.5563 46.1172 35.5563 42.9203C35.5563 39.7235 33.0185 37.1318 29.888 37.1318C26.7576 37.1318 24.2197 39.7235 24.2197 42.9203C24.2197 46.1172 26.7576 48.7088 29.888 48.7088ZM9.66258 52.7871C4.32925 52.7871 0.000747681 48.3668 0.000747681 42.9203C0.000747681 37.4739 4.32925 33.0536 9.66258 33.0536C14.9959 33.0536 19.3244 37.4739 19.3244 42.9203C19.3244 48.3668 14.9959 52.7871 9.66258 52.7871ZM9.66258 48.7088C12.793 48.7088 15.3309 46.1172 15.3309 42.9203C15.3309 39.7235 12.793 37.1318 9.66258 37.1318C6.53215 37.1318 3.99431 39.7235 3.99431 42.9203C3.99431 46.1172 6.53215 48.7088 9.66258 48.7088Z" fill="#C4C4C4"/>
</g>
</g>
<defs>
<clipPath id="clip0_60783_134106">
<rect width="81" height="80" fill="white"/>
</clipPath>
<clipPath id="clip1_60783_134106">
<rect width="80" height="25.7851" fill="white" transform="translate(-0.000228882 27)"/>
</clipPath>
</defs>
</svg>
